<?xml version="1.0" standalone="no"?>
<!DOCTYPE svg PUBLIC "-//W3C//DTD SVG 20010904//EN"
 "http://www.w3.org/TR/2001/REC-SVG-20010904/DTD/svg10.dtd">
<svg version="1.0" xmlns="http://www.w3.org/2000/svg"
 width="512.000000pt" height="512.000000pt" viewBox="0 0 512.000000 512.000000"
 preserveAspectRatio="xMidYMid meet">
<metadata>
Created by potrace 1.11, written by Peter Selinger 2001-2013
</metadata>
<g transform="translate(0.000000,512.000000) scale(0.100000,-0.100000)"
fill="#000000" stroke="none">
<path d="M1653 4179 c-318 -67 -616 -249 -843 -517 -93 -109 -108 -141 -96
-205 11 -56 77 -107 141 -107 54 0 87 22 153 103 207 253 496 419 794 456 103
12 138 28 167 74 42 68 17 168 -49 202 -40 21 -154 18 -267 -6z"/>
<path d="M3051 3768 c-152 -14 -205 -54 -205 -153 0 -55 13 -81 59 -117 29
-22 34 -23 225 -20 166 3 210 1 295 -17 227 -46 417 -157 553 -322 59 -73 95
-94 154 -92 54 3 95 30 119 81 38 78 15 133 -116 267 -162 165 -383 291 -595
339 -94 22 -289 46 -350 45 -25 -1 -87 -6 -139 -11z"/>
<path d="M1544 3258 c-51 -16 -124 -79 -167 -141 -113 -166 -129 -437 -37
-624 91 -185 268 -266 415 -191 99 51 188 177 220 310 19 82 19 247 0 323 -36
142 -127 266 -227 313 -52 24 -146 29 -204 10z"/>
<path d="M3324 3050 c-201 -29 -401 -188 -519 -411 -41 -78 -42 -87 -14 -123
28 -35 52 -33 151 14 102 49 208 76 356 92 202 21 440 -17 597 -97 39 -19 80
-35 93 -35 25 0 72 41 72 63 0 26 -60 133 -117 207 -128 167 -260 256 -423
286 -82 15 -119 15 -196 4z"/>
<path d="M1812 1768 c-59 -29 -28 -154 84 -334 53 -85 182 -212 268 -263 181
-108 431 -134 641 -67 217 69 408 257 506 496 37 92 38 132 3 159 -35 27 -47
27 -108 -8 -62 -35 -155 -65 -279 -88 -133 -25 -601 -25 -734 0 -124 23 -217
53 -279 88 -56 31 -67 33 -102 17z"/>
</g>
</svg>
